HIERARCHY
ROOT hip
{
  OFFSET 0 0 0
  CHANNELS 6 Xposition Yposition Zposition Zrotation Yrotation Xrotation
  JOINT abdomen
  {
    OFFSET 0 20.6881 -0.73152
    CHANNELS 3 Zrotation Xrotation Yrotation
    JOINT chest
    {
      OFFSET 0 11.7043 -0.48768
      CHANNELS 3 Zrotation Xrotation Yrotation
      JOINT neck
      {
        OFFSET 0 22.1894 -2.19456
        CHANNELS 3 Zrotation Xrotation Yrotation
        JOINT head
        {
          OFFSET -0.24384 7.07133 1.2192
          CHANNELS 3 Zrotation Xrotation Yrotation
          JOINT leftEye
          {
            OFFSET 4.14528 8.04674 8.04672
            CHANNELS 3 Zrotation Xrotation Yrotation
            End Site
            {
              OFFSET 1 0 0
            }
          }
          JOINT rightEye
          {
            OFFSET -3.6576 8.04674 8.04672
            CHANNELS 3 Zrotation Xrotation Yrotation
            End Site
            {
              OFFSET 1 0 0
            }
          }
        }
      }
      JOINT rCollar
      {
        OFFSET -2.68224 19.2634 -4.8768
        CHANNELS 3 Zrotation Xrotation Yrotation
        JOINT rShldr
        {
          OFFSET -8.77824 -1.95073 1.46304
          CHANNELS 3 Zrotation Xrotation Yrotation
          JOINT rForeArm
          {
            OFFSET -28.1742 -1.7115 0.48768
            CHANNELS 3 Zrotation Xrotation Yrotation
            JOINT rHand
            {
              OFFSET -22.5879 0.773209 7.07136
              CHANNELS 3 Zrotation Xrotation Yrotation
              JOINT rThumb1
              {
                OFFSET -1.2192 -0.487915 3.41376
                CHANNELS 3 Zrotation Xrotation Yrotation
                JOINT rThumb2
                {
                  OFFSET -3.37035 -0.52449 3.41376
                  CHANNELS 3 Zrotation Xrotation Yrotation
                  End Site
                  {
                    OFFSET -1.78271 -1.18214 1.43049
                  }
                }
              }
              JOINT rIndex1
              {
                OFFSET -7.75947 0.938293 5.60832
                CHANNELS 3 Zrotation Xrotation Yrotation
                JOINT rIndex2
                {
                  OFFSET -2.54057 -0.884171 1.56538
                  CHANNELS 3 Zrotation Xrotation Yrotation
                  End Site
                  {
                    OFFSET -1.62519 -0.234802 1.16502
                  }
                }
              }
              JOINT rMid1
              {
                OFFSET -8.24714 1.18213 3.41376
                CHANNELS 3 Zrotation Xrotation Yrotation
                JOINT rMid2
                {
                  OFFSET -3.10165 -0.590103 1.0647
                  CHANNELS 3 Zrotation Xrotation Yrotation
                  End Site
                  {
                    OFFSET -2.48547 -0.328903 0.83742
                  }
                }
              }
              JOINT rRing1
              {
                OFFSET -8.82822 0.546677 1.51678
                CHANNELS 3 Zrotation Xrotation Yrotation
                JOINT rRing2
                {
                  OFFSET -2.60934 -0.819778 -0.0198488
                  CHANNELS 3 Zrotation Xrotation Yrotation
                  End Site
                  {
                    OFFSET -2.33842 -0.294052 0.168128
                  }
                }
              }
              JOINT rPinky1
              {
                OFFSET -8.27202 -0.0477905 -0.4584
                CHANNELS 3 Zrotation Xrotation Yrotation
                JOINT rPinky2
                {
                  OFFSET -1.82734 -0.647385 -0.700984
                  CHANNELS 3 Zrotation Xrotation Yrotation
                  End Site
                  {
                    OFFSET -1.69225 -0.51767 -0.607171
                  }
                }
              }
            }
          }
        }
      }
      JOINT lCollar
      {
        OFFSET 2.68224 19.2634 -4.8768
        CHANNELS 3 Zrotation Xrotation Yrotation
        JOINT lShldr
        {
          OFFSET 8.77824 -1.95073 1.46304
          CHANNELS 3 Zrotation Xrotation Yrotation
          JOINT lForeArm
          {
            OFFSET 28.1742 -1.7115 0.48768
            CHANNELS 3 Zrotation Xrotation Yrotation
            JOINT lHand
            {
              OFFSET 22.5879 0.773209 7.07136
              CHANNELS 3 Zrotation Xrotation Yrotation
              JOINT lThumb1
              {
                OFFSET 1.2192 -0.487915 3.41376
                CHANNELS 3 Zrotation Xrotation Yrotation
                JOINT lThumb2
                {
                  OFFSET 3.37035 -0.52449 3.41376
                  CHANNELS 3 Zrotation Xrotation Yrotation
                  End Site
                  {
                    OFFSET 1.78271 -1.18214 1.43049
                  }
                }
              }
              JOINT lIndex1
              {
                OFFSET 7.75947 0.938293 5.60832
                CHANNELS 3 Zrotation Xrotation Yrotation
                JOINT lIndex2
                {
                  OFFSET 2.54057 -0.884171 1.56538
                  CHANNELS 3 Zrotation Xrotation Yrotation
                  End Site
                  {
                    OFFSET 1.62519 -0.234802 1.16502
                  }
                }
              }
              JOINT lMid1
              {
                OFFSET 8.24714 1.18213 3.41376
                CHANNELS 3 Zrotation Xrotation Yrotation
                JOINT lMid2
                {
                  OFFSET 3.10165 -0.590103 1.0647
                  CHANNELS 3 Zrotation Xrotation Yrotation
                  End Site
                  {
                    OFFSET 2.48547 -0.328903 0.83742
                  }
                }
              }
              JOINT lRing1
              {
                OFFSET 8.82822 0.546677 1.51678
                CHANNELS 3 Zrotation Xrotation Yrotation
                JOINT lRing2
                {
                  OFFSET 2.60934 -0.819778 -0.0198488
                  CHANNELS 3 Zrotation Xrotation Yrotation
                  End Site
                  {
                    OFFSET 2.33842 -0.294052 0.168128
                  }
                }
              }
              JOINT lPinky1
              {
                OFFSET 8.27202 -0.0477905 -0.4584
                CHANNELS 3 Zrotation Xrotation Yrotation
                JOINT lPinky2
                {
                  OFFSET 1.82734 -0.647385 -0.700984
                  CHANNELS 3 Zrotation Xrotation Yrotation
                  End Site
                  {
                    OFFSET 1.69225 -0.51767 -0.607171
                  }
                }
              }
            }
          }
        }
      }
    }
  }
  JOINT rButtock
  {
    OFFSET -8.77824 4.35084 1.2192
    CHANNELS 3 Zrotation Xrotation Yrotation
    JOINT rThigh
    {
      OFFSET 0 -1.70687 -2.19456
      CHANNELS 3 Zrotation Xrotation Yrotation
      JOINT rShin
      {
        OFFSET 0 -36.8199 0.73152
        CHANNELS 3 Zrotation Xrotation Yrotation
        JOINT rFoot
        {
          OFFSET 0.73152 -45.1104 -5.12064
          CHANNELS 3 Zrotation Xrotation Yrotation
          End Site
          {
            OFFSET -1.1221 -3.69964 12.103
          }
        }
      }
    }
  }
  JOINT lButtock
  {
    OFFSET 8.77824 4.35084 1.2192
    CHANNELS 3 Zrotation Xrotation Yrotation
    JOINT lThigh
    {
      OFFSET 0 -1.70687 -2.19456
      CHANNELS 3 Zrotation Xrotation Yrotation
      JOINT lShin
      {
        OFFSET 0 -36.8199 0.73152
        CHANNELS 3 Zrotation Xrotation Yrotation
        JOINT lFoot
        {
          OFFSET -0.73152 -45.1104 -5.12064
          CHANNELS 3 Zrotation Xrotation Yrotation
          End Site
          {
            OFFSET 1.1221 -3.69964 12.103
          }
        }
      }
    }
  }
}
MOTION
Frames:	4
Frame Time:	0.03333
0.654432393261926 43.22731786071607 7.882180437164022 -10.057398796081543 -24.15869903564453 5.8172993659973145 6.395699501037598 10.409400939941406 9.985099792480469 -0.7990468740463257 -6.447709560394287 2.832639694213867 -3.4251296520233154 12.72189998626709 -0.8031169772148132 7.238110065460205 -21.35249900817871 -0.03186580166220665 -0.0 0.0 -0.0 -0.0 0.0 -0.0 -5.0888872109300376e-14 2.417221425191768e-13 5.724998383346835e-13 68.69049835205078 34.727603912353516 3.7019200325012207 -15.968701362609863 -8.658230781555176 29.606597900390625 -0.00844436977058649 2.622809886932373 0.3688719868659973 -1.082202771840457e-09 2.771293416969911e-09 -9.830521952025606e-10 -1.876221844554493e-09 4.794685981579505e-09 -1.6992494078493792e-09 -1.082202771840457e-09 2.771293416969911e-09 -9.830457559090178e-10 7.7309088706970215 5.474880218505859 0.41731396317481995 -1.082202771840457e-09 2.7712807604274303e-09 -9.830394276377774e-10 2.9055399894714355 0.9651829600334167 0.10290198773145676 -1.082202771840457e-09 2.771293416969911e-09 -9.830394276377774e-10 10.27859878540039 0.73180091381073 0.025912299752235413 -1.0822154283829377e-09 2.771293416969911e-09 -9.83033099366537e-10 2.2216696739196777 -0.7334870100021362 -0.2089199721813202 -5.0888872109300376e-14 2.417221425191768e-13 5.661387157684938e-13 -70.52129364013672 28.33679962158203 -4.921679973602295 16.62459373474121 -9.28076171875 -31.002599716186523 0.10525298863649368 9.213260650634766 -1.306230068206787 -1.9364234660201873e-09 1.5355716698195465e-10 1.7092490756098755e-09 -3.3309566216388475e-09 3.144169091751081e-10 2.9774824827910606e-09 -1.9364234660201873e-09 1.5355716698195465e-10 1.7092618431746587e-09 -7.7309088706970215 5.474880218505859 -0.41731396317481995 -1.936436122562668e-09 1.535444549283227e-10 1.709229979773852e-09 -2.9055399894714355 0.9651829600334167 -0.10290198773145676 -1.936436122562668e-09 1.5355716698195465e-10 1.7092490756098755e-09 -10.27859878540039 0.73180091381073 -0.025912299752235413 -1.9364234660201873e-09 1.5356989291337442e-10 1.7092427473386351e-09 -2.2216696739196777 -0.7334870100021362 0.2089199721813202 -0.0 0.0 -0.0 -1.441969871520996 -7.867799282073975 -8.430988311767578 -0.41183707118034363 47.11170196533203 1.4219599962234497 -16.741899490356445 -19.827598571777344 -29.30449867248535 -0.0 0.0 -0.0 40.92100143432617 -51.853397369384766 27.598600387573242 0.7162209749221802 50.058494567871094 -0.4236059784889221 0.7898598909378052 7.49124002456665 -3.159299850463867
0.7486839478672906 43.16721219601996 8.095320732402074 -10.391999244689941 -24.43509864807129 6.340199947357178 6.632148742675781 10.462698936462402 10.238699913024902 -0.9051678776741028 -6.496429443359375 2.9066598415374756 -3.312040090560913 12.76990032196045 -0.6473760008811951 7.028249740600586 -21.815099716186523 0.2561909854412079 -0.0 0.0 -0.0 -0.0 0.0 -0.0 1.2722218027325094e-14 1.908332704098764e-13 3.6258322733129233e-13 67.50860595703125 36.39580154418945 5.257130146026611 -16.08909797668457 -8.769869804382324 29.861797332763672 -0.01171109639108181 3.0839998722076416 0.4338589906692505 -5.91201476662917e-10 1.6759231780127948e-09 -8.001003193314205e-10 -1.0261613780926382e-09 2.899253503940713e-09 -1.383019587741785e-09 -5.911760525556531e-10 1.6759231780127948e-09 -8.000939355490289e-10 7.7309088706970215 5.474880218505859 0.41731396317481995 -5.91188764609285e-10 1.675910521470314e-09 -8.000875517666373e-10 2.9055399894714355 0.9651829600334167 0.10290198773145676 -5.91188764609285e-10 1.6759231780127948e-09 -8.000939355490289e-10 10.27859878540039 0.73180091381073 0.025912299752235413 -5.91201476662917e-10 1.6759231780127948e-09 -8.000812234953969e-10 2.2216696739196777 -0.7334870100021362 -0.2089199721813202 1.2722218027325094e-14 1.908332704098764e-13 3.5622210476510263e-13 -69.69479370117188 28.55900001525879 -5.985489845275879 16.742198944091797 -9.395539283752441 -31.255599975585938 0.09225208312273026 8.653199195861816 -1.2254798412322998 -6.848751565868838e-10 6.033639143865344e-10 1.0393989002821513e-09 -1.1718053194442746e-09 1.0694805041566724e-09 1.8063196494111367e-09 -6.848878686405158e-10 6.033639143865344e-10 1.039411556824632e-09 -7.7309088706970215 5.474880218505859 -0.41731396317481995 -6.848878686405158e-10 6.033639143865344e-10 1.0393924609886085e-09 -2.9055399894714355 0.9651829600334167 -0.10290198773145676 -6.848878686405158e-10 6.033639143865344e-10 1.0393989002821513e-09 -10.27859878540039 0.73180091381073 -0.025912299752235413 -6.848751565868838e-10 6.033639143865344e-10 1.0393989002821513e-09 -2.2216696739196777 -0.7334870100021362 0.2089199721813202 -0.0 0.0 -0.0 -1.7540701627731323 -8.268759727478027 -9.520519256591797 -0.4164310693740845 47.35540008544922 1.4378700256347656 -16.60890007019043 -19.80190086364746 -29.119102478027344 -0.0 0.0 -0.0 42.4921989440918 -52.25059509277344 29.555896759033203 0.7538518309593201 51.16239929199219 -0.49312591552734375 0.7535078525543213 7.151309967041016 -3.3167498111724854
0.8291845174044212 43.121948532390284 8.283823841612804 -10.66579818725586 -24.59309959411621 6.741199493408203 6.793569087982178 10.564499855041504 10.416199684143066 -0.9435338973999023 -6.594150543212891 2.9609298706054688 -3.2224597930908203 12.808098793029785 -0.5108098983764648 6.858078479766846 -22.19260025024414 0.5097320079803467 -0.0 0.0 -0.0 -0.0 0.0 -0.0 1.0177774421860075e-13 1.3994439830057603e-13 -2.5444436054650188e-14 66.14409637451172 38.12510299682617 6.861520290374756 -16.26700210571289 -8.93770980834961 30.2383975982666 -0.017430100589990616 3.766429901123047 0.5301089882850647 2.3838891971550424e-10 1.3565701340034764e-10 -4.76313488650959e-10 4.0976991244612293e-10 2.3525925652023716e-10 -8.241262117181236e-10 2.384143715783438e-10 1.3565701340034764e-10 -4.763071048685674e-10 7.7309088706970215 5.474880218505859 0.41731396317481995 2.384143715783438e-10 1.3564428746892787e-10 -4.763007765973271e-10 2.9055399894714355 0.9651829600334167 0.10290198773145676 2.3838891971550424e-10 1.3565701340034764e-10 -4.76313488650959e-10 10.27859878540039 0.73180091381073 0.025912299752235413 2.3838891971550424e-10 1.3565701340034764e-10 -4.763071048685674e-10 2.2216696739196777 -0.7334870100021362 -0.2089199721813202 1.0177774421860075e-13 1.3994439830057603e-13 -2.5444436054650188e-14 -68.90049743652344 28.777999877929688 -7.05757999420166 16.904296875 -9.555180549621582 -31.605697631835938 0.07711929827928543 7.897880554199219 -1.1171300411224365 1.1617548034692504e-09 1.2792317205523318e-09 6.188723145061914e-11 2.0130748179525426e-09 2.2035262503550257e-09 9.743946621787458e-11 1.1617548034692504e-09 1.2792317205523318e-09 6.188723145061914e-11 -7.7309088706970215 5.474880218505859 -0.41731396317481995 1.1617548034692504e-09 1.279244488117115e-09 6.188723145061914e-11 -2.9055399894714355 0.9651829600334167 -0.10290198773145676 1.1617548034692504e-09 1.2792317205523318e-09 6.188723145061914e-11 -10.27859878540039 0.73180091381073 -0.025912299752235413 1.1617674600117311e-09 1.2792317205523318e-09 6.188086848490926e-11 -2.2216696739196777 -0.7334870100021362 0.2089199721813202 -0.0 0.0 -0.0 -1.983709692955017 -8.553790092468262 -10.325599670410156 -0.4181569814682007 47.523895263671875 1.4562599658966064 -16.502798080444336 -19.771398544311523 -28.99379539489746 -0.0 0.0 -0.0 43.963897705078125 -52.616397857666016 31.527496337890625 0.7903568148612976 52.17129898071289 -0.5596809983253479 0.7192639708518982 6.967080116271973 -3.366309881210327
0.9134666105033589 43.065285283035855 8.46774329358086 -10.907999992370605 -24.589797973632812 7.049899578094482 6.781460285186768 10.780698776245117 10.522598266601562 -0.8885259628295898 -6.74407958984375 2.996649980545044 -3.206169605255127 12.866199493408203 -0.41661596298217773 6.872838973999023 -22.66910171508789 0.7251489758491516 -0.0 0.0 -0.0 -0.0 0.0 -0.0 8.905552619127566e-14 1.6538883435522622e-13 -3.1169435522199196e-13 64.72349548339844 39.69390106201172 8.387700080871582 -16.532297134399414 -9.191530227661133 30.804096221923828 -0.026311494410037994 4.6623101234436035 0.6566749215126038 1.1775302954930567e-09 -9.174372928022478e-10 -9.00224131350491e-11 2.0343080553431037e-09 -1.5824658250451762e-09 -1.6098058996938391e-10 1.177555830622623e-09 -9.174500048558798e-10 -9.002877610075899e-11 7.7309088706970215 5.474880218505859 0.41731396317481995 1.177555830622623e-09 -9.174500048558798e-10 -9.001605710823313e-11 2.9055399894714355 0.9651829600334167 0.10290198773145676 1.1775430630578398e-09 -9.174500048558798e-10 -9.002877610075899e-11 10.27859878540039 0.73180091381073 0.025912299752235413 1.1775302954930567e-09 -9.174500048558798e-10 -9.00224131350491e-11 2.2216696739196777 -0.7334870100021362 -0.2089199721813202 8.905552619127566e-14 1.6538883435522622e-13 -3.1169435522199196e-13 -68.13209533691406 28.966800689697266 -8.149269104003906 17.082799911499023 -9.733169555664062 -31.994001388549805 0.07117359340190887 7.582269191741943 -1.071969985961914 2.6369086914002082e-09 2.7603397345643543e-09 -5.928553481471255e-11 4.560813504639327e-09 4.742525039347356e-09 -1.2392713244491205e-10 2.6369086914002082e-09 2.760352391106835e-09 -5.927917184900267e-11 -7.7309088706970215 5.474880218505859 -0.41731396317481995 2.6369086914002082e-09 2.760352391106835e-09 -5.928553481471255e-11 -2.9055399894714355 0.9651829600334167 -0.10290198773145676 2.6369086914002082e-09 2.760352391106835e-09 -5.928553481471255e-11 -10.27859878540039 0.73180091381073 -0.025912299752235413 2.636921347942689e-09 2.760352391106835e-09 -5.929189778042243e-11 -2.2216696739196777 -0.7334870100021362 0.2089199721813202 -0.0 0.0 -0.0 -2.2008798122406006 -8.703879356384277 -10.93340015411377 -0.4182150363922119 47.66250228881836 1.4779300689697266 -16.49629783630371 -19.809101104736328 -28.980897903442383 -0.0 0.0 -0.0 45.237693786621094 -52.89390182495117 33.558799743652344 0.8222249746322632 53.02029800415039 -0.6194549798965454 0.6740269660949707 6.803300380706787 -3.2481298446655273
